<svg width="24" height="24" viewBox="0 0 24 24" fill="none" xmlns="http://www.w3.org/2000/svg">
<path d="M13.4086 11.9951L17.7045 7.70859C17.8926 7.52044 17.9983 7.26526 17.9983 6.99918C17.9983 6.73309 17.8926 6.47791 17.7045 6.28976C17.5164 6.10161 17.2612 5.99591 16.9952 5.99591C16.7291 5.99591 16.474 6.10161 16.2859 6.28976L12 10.5862L7.71414 6.28976C7.52602 6.10161 7.27087 5.99591 7.00483 5.99591C6.73878 5.99591 6.48363 6.10161 6.29551 6.28976C6.10739 6.47791 6.0017 6.73309 6.0017 6.99918C6.0017 7.26526 6.10739 7.52044 6.29551 7.70859L10.5914 11.9951L6.29551 16.2815C6.20187 16.3744 6.12755 16.4849 6.07683 16.6067C6.02611 16.7284 6 16.859 6 16.9909C6 17.1228 6.02611 17.2534 6.07683 17.3752C6.12755 17.497 6.20187 17.6075 6.29551 17.7004C6.38839 17.794 6.49888 17.8683 6.62062 17.9191C6.74236 17.9698 6.87294 17.9959 7.00483 17.9959C7.13671 17.9959 7.26729 17.9698 7.38903 17.9191C7.51077 17.8683 7.62127 17.794 7.71414 17.7004L12 13.4039L16.2859 17.7004C16.3787 17.794 16.4892 17.8683 16.611 17.9191C16.7327 17.9698 16.8633 17.9959 16.9952 17.9959C17.1271 17.9959 17.2576 17.9698 17.3794 17.9191C17.5011 17.8683 17.6116 17.794 17.7045 17.7004C17.7981 17.6075 17.8724 17.497 17.9232 17.3752C17.9739 17.2534 18 17.1228 18 16.9909C18 16.859 17.9739 16.7284 17.9232 16.6067C17.8724 16.4849 17.7981 16.3744 17.7045 16.2815L13.4086 11.9951Z" fill="#999FA3"/>
</svg>
