<svg id="Artwork" xmlns="http://www.w3.org/2000/svg" viewBox="0 0 167.45 57.11"><defs><style>.cls-1{fill:#fff;}</style></defs><title>noslogan</title><g id="white"><path class="cls-1" d="M36.06,28.55c0-5.61,4.31-9.76,10.14-9.76a10.25,10.25,0,0,1,7,2.66.44.44,0,0,1,0,.72L51,24.24a.48.48,0,0,1-.74,0,5.94,5.94,0,1,0,0,8.67.48.48,0,0,1,.74,0l2.21,2c.24.24.28.49,0,.7a10.36,10.36,0,0,1-7.06,2.69C40.37,38.32,36.06,34.17,36.06,28.55Z"/><path class="cls-1" d="M87.9,37.56v-18a.46.46,0,0,1,.51-.51h7.88a6.08,6.08,0,0,1,6.41,6.21c0,3.5-2.48,6.11-6.41,6.11H92.61a.46.46,0,0,0-.51.51v5.7a.45.45,0,0,1-.5.51H88.41A.45.45,0,0,1,87.9,37.56Zm7.72-9.73c2,0,3-1,3-2.64s-1-2.65-3-2.65h-3a.46.46,0,0,0-.51.51v4.28a.45.45,0,0,0,.51.5Z"/><path class="cls-1" d="M111.43,37.56v-18a.46.46,0,0,1,.51-.51h7.88a6.08,6.08,0,0,1,6.41,6.21c0,3.5-2.48,6.11-6.41,6.11h-3.68a.46.46,0,0,0-.51.51v5.7a.45.45,0,0,1-.5.51h-3.19A.45.45,0,0,1,111.43,37.56Zm7.72-9.73c2,0,3-1,3-2.64s-1-2.65-3-2.65h-3a.46.46,0,0,0-.51.51v4.28a.45.45,0,0,0,.51.5Z"/><path class="cls-1" d="M30.17,19,23.42,37.58a.7.7,0,0,1-.69.49H19l6.75-18.53a.7.7,0,0,1,.69-.51Z"/><path class="cls-1" d="M137.49,24.2c0-1.14,1-1.88,2.68-1.88a8.18,8.18,0,0,1,5.54,2.08h0l1.2-3.46a.43.43,0,0,0-.17-.51,10.88,10.88,0,0,0-6.2-1.71c-4.48,0-7.22,2.63-7.22,5.79,0,7.17,11,4.86,11,8.17,0,1.11-1.06,2.11-3.31,2.11a8.3,8.3,0,0,1-5.69-2.25.43.43,0,0,0-.64.05l-1.74,2.47a.43.43,0,0,0,0,.55,11.05,11.05,0,0,0,7.85,2.77c5.11,0,7.62-2.62,7.62-6.1C148.42,25.17,137.49,27.2,137.49,24.2Z"/><path class="cls-1" d="M79.33,37.49,72.76,19.43a.57.57,0,0,0-.59-.4H68a.56.56,0,0,0-.58.4L60.85,37.49c-.14.35,0,.58.4.58h3a.53.53,0,0,0,.57-.41L69.77,24.1c.17-.46.49-.46.66,0l2.23,6.13c.13.35,0,.58-.41.58h-3L67.94,34.3h5.79a.54.54,0,0,1,.56.41l1.07,2.95a.54.54,0,0,0,.56.41h3C79.28,38.07,79.46,37.84,79.33,37.49Z"/></g></svg>